# xmcd
#
# Track frame offsets:
#	150
#	12543
#	24018
#	38793
#	57400
#	66915
#	80798
#	105403
#	115790
#	126155
#	139560
#	159763
#	173343
#	189995
#	202647
#	215380
#	230245
#	239243
#	256735
#	271023
#
# Disc length: 3794 seconds
#
# Revision: 5505109
# Processed by: cddbd v1.5.2PL0 Copyright (c) Steve Scherf et al.
# Submitted via: EZCDAudioConverter 2.1.5.1
#
DISCID=040ed014
DTITLE=Various Artist - 20 Best Of Bluegrass
DYEAR=1995
DGENRE=Country
TTITLE0=The Cox Family - Pardon Me
TTITLE1=The Nashville Bluegrass Band - Old Devil's Dream
TTITLE2=Alison Krauss - Every Time You Say Goodbye
TTITLE3=Here Today - Lonesome River
TTITLE4=Ricky Skaggs - Lost And I'll Never Find My Way
TTITLE5=Lynn Morris Band - You'll Get No More Of Me
TTITLE6=Laurie Lewis - Who Will Watch The Home Place?
TTITLE7=Tony Rice - One Tear
TTITLE8=Jim and Jesse - I'll Love Nobody But You
TTITLE9=The Del McCoury Band - Queen Anne's Lace
TTITLE10=Alison Krauss and The Cox Family - When God Dips His Pen Of Love In My 
TTITLE10=Heart
TTITLE11=James King - Leavin'
TTITLE12=Dry Branch Fire Squad - Someone Play Dixie For Me
TTITLE13=Rony Rice - Hold Watcha Got
TTITLE14=J. D. Crowe - The Old Home Place
TTITLE15=The Johnson Mountain Boys - Duncan And Brady
TTITLE16=David Grisman - I Ain't Broke But I'm Badly Bent
TTITLE17=Dreadful Snakes - Who's That Knocking On My Door
TTITLE18=Béla Fleck - Whitewater
TTITLE19=Hazel Dickens With The Johnxon Mountain Boys - Here Today And Gone To
TTITLE19=morrow
EXTD=
EXTT0=
EXTT1=
EXTT2=
EXTT3=
EXTT4=
EXTT5=
EXTT6=
EXTT7=
EXTT8=
EXTT9=
EXTT10=
EXTT11=
EXTT12=
EXTT13=
EXTT14=
EXTT15=
EXTT16=
EXTT17=
EXTT18=
EXTT19=
PLAYORDER=
